<?xml version="1.0" ?><!-- Uploaded to: SVG Repo, www.svgrepo.com, Generator: SVG Repo Mixer Tools -->
<svg width="800px" height="800px" viewBox="0 0 512 512" data-name="Слой 1" id="Слой_1" xmlns="http://www.w3.org/2000/svg"><defs><style>.cls-1{fill:#cdccd2;}.cls-2{fill:#ffffff;}.cls-3{fill:#00b98f;}.cls-4{fill:#fda900;}.cls-5{fill:#008b6b;}.cls-6{fill:#00cbdd;}.cls-7{fill:#538730;}.cls-8{fill:#4e2649;}.cls-9{fill:#ff0f67;}.cls-10{fill:#ee1a22;}</style></defs><title/><circle class="cls-1" cx="258" cy="256" r="207.77"/><circle class="cls-2" cx="258" cy="257.03" r="194.41"/><path class="cls-3" d="M222.06,213.08l-33.91,11-7.4-22.75a17.83,17.83,0,1,1,33.91-11Z"/><rect class="cls-3" height="39.7" transform="matrix(0.95, -0.31, 0.31, 0.95, -72.99, 81.97)" width="35.66" x="204.43" y="251.52"/><path class="cls-3" d="M252,363a17.83,17.83,0,0,1-22.47-11.44l-7.12-21.9,33.91-11,7.12,21.9A17.82,17.82,0,0,1,252,363Z"/><path class="cls-4" d="M293.44,189.88l-33.91,11-7.4-22.75a17.83,17.83,0,1,1,33.91-11Z"/><rect class="cls-4" height="39.7" transform="translate(-62.32 102.89) rotate(-18)" width="35.66" x="275.81" y="228.33"/><path class="cls-4" d="M323.42,339.82A17.83,17.83,0,0,1,301,328.38l-7.12-21.9,33.91-11,7.12,21.9A17.82,17.82,0,0,1,323.42,339.82Z"/><rect class="cls-5" height="35.66" transform="translate(-62.48 76.62) rotate(-18)" width="35.66" x="192.79" y="217.71"/><path class="cls-6" d="M199.17,258l-22.68,7.37a17.83,17.83,0,1,1-11-33.91l22.68-7.37Z"/><path class="cls-6" d="M326.72,216.56l-22.26,7.23-11-33.91,22.26-7.23A17.83,17.83,0,0,1,326.72,216.56Z"/><rect class="cls-7" height="35.66" transform="translate(-51.82 97.54) rotate(-18)" width="35.66" x="264.17" y="194.52"/><rect class="cls-6" height="35.66" transform="translate(-57.16 87.1) rotate(-18)" width="39.4" x="226.6" y="206.11"/><rect class="cls-8" height="35.66" transform="translate(-83.49 87.32) rotate(-18)" width="35.66" x="216.07" y="289.38"/><path class="cls-9" d="M222.46,329.67L199.77,337a17.83,17.83,0,1,1-11-33.91l22.68-7.37Z"/><rect class="cls-9" height="35.66" transform="translate(-78.17 97.8) rotate(-18)" width="39.4" x="249.89" y="277.78"/><rect class="cls-10" height="35.66" transform="matrix(0.95, -0.31, 0.31, 0.95, -72.83, 108.25)" width="35.66" x="287.46" y="266.18"/><path class="cls-9" d="M350,288.22l-22.26,7.23-11-33.91L339,254.31A17.83,17.83,0,0,1,350,288.22Z"/></svg>